# xmcd
#
# Track frame offsets:
#	150
#	13385
#	34207
#	42567
#	71792
#	85160
#	99280
#	110960
#	123722
#	137090
#	149255
#	165067
#	183900
#	202135
#	221227
#	240732
#	264752
#	276385
#	296530
#	318467
#
# Disc length: 4438
#
# Revision: 1
# Processed by: cddbd v1.5.1PL0 Copyright (c) Steve Scherf et al.
# Submitted via: ExactAudioCopy v0.90b4
# Normalized: r0:DSETVAR1
#
DISCID=3c115414
DTITLE=Various Artist - Let's Have a Blues Ball
DYEAR=1900
DGENRE=Blues
TTITLE0=Johnny Young - I'm Having a Ball
TTITLE1=John Littlejohn - Dream
TTITLE2=Big Mama Thornton - Swing It On Home
TTITLE3=Earl Hooker - Anna Lee
TTITLE4=Juke Boy Bonner - Going Back to the Country
TTITLE5=Clifton Chenier - It's Hard
TTITLE6=Lightnin' Hopkins - Come On Baby
TTITLE7=Sonny Boy Williamson - Nine Below Zero
TTITLE8=Lil Son Jackson - Gambling Blues
TTITLE9=Sonny Boy Williamson - Pontiac Blues
TTITLE10=Juke Boy Bonner - I'm In the Big City
TTITLE11=Lightnin' Hopkins - Meet You at the Chicken Shack
TTITLE12=John Delafose - Bag around Your Head
TTITLE13=Henry Gray - The Blues (Won't Let Me Take My Rest)
TTITLE14=John Littlejohn - Shake Your Moneymaker
TTITLE15=Charlie Musselwhite - If Trouble Was Money
TTITLE16=Johnny Young - Wild, Wild Woman
TTITLE17=Big Mama Thornton - Gimme a Penny
TTITLE18=Johnny Young - On the Road Again
TTITLE19=L.C. Robinson - Mojo in My Hand
EXTD=
EXTT0=
EXTT1=
EXTT2=
EXTT3=
EXTT4=
EXTT5=
EXTT6=
EXTT7=
EXTT8=
EXTT9=
EXTT10=
EXTT11=
EXTT12=
EXTT13=
EXTT14=
EXTT15=
EXTT16=
EXTT17=
EXTT18=
EXTT19=
PLAYORDER=
